#!OML:ASF E:\Steps\Project 1\Capture day 1\Session 2\Subject.ASF
:FULLY-SPECIFIED
:DEGREES
478
root 3.32415 17.9509 16.5571 -154.962 -2.281 176.402
lowerback -30.6266 -1.80415 -7.80207
upperback -1.70542 -0.349841 -0.920312
thorax 14.1144 -0.952252 2.99584
lowerneck -2.33431 -2.64753 -0.362704
upperneck 6.95236 -3.71436 0.859663
head 2.6248 -1.88266 0.222196
rclavicle 0 1.51076e-014
rhumerus -35.2998 -18.641 -79.6635
rradius 31.6512
rwrist -1.01959
rhand -4.83784 -52.8879
rfingers 7.12502
rthumb 20.9492 -81.7766
lclavicle 0 1.51076e-014
lhumerus -30.3526 2.7715 83.2304
lradius 19.3561
lwrist -7.50937
lhand -20.6248 -13.7615
lfingers 7.12502
lthumb 5.73663 16.1408
rfemur -23.8807 8.85411 16.1412
rtibia 10.169
rfoot -19.4188 -3.87008
rtoes -29.9069
lfemur -22.6033 -5.26354 -26.2538
ltibia 7.3315
lfoot -5.12371 -8.70159
ltoes 2.40312
479
root 3.33032 17.9509 16.5528 -154.858 -2.21907 176.359
lowerback -30.8335 -1.83315 -7.9871
upperback -1.68892 -0.315434 -0.874887
thorax 14.2189 -0.955907 3.15348
lowerneck -2.67583 -2.47388 -0.605865
upperneck 7.15292 -3.46443 0.7992
head 2.75742 -1.76406 0.245696
rclavicle 1.14798e-014 -1.86858e-014
rhumerus -35.2355 -18.5337 -79.6269
rradius 31.6621
rwrist -0.977991
rhand -4.74054 -53.0892
rfingers 7.12502
rthumb 21.0427 -81.9676
lclavicle 1.14798e-014 -1.86858e-014
lhumerus -30.2232 2.69447 83.3813
lradius 19.4899
lwrist -7.46297
lhand -20.2443 -13.2642
lfingers 7.12502
lthumb 6.10396 16.6278
rfemur -23.9779 9.18466 16.0244
rtibia 10.1761
rfoot -19.4254 -4.1932
rtoes -30.2894
lfemur -22.6854 -5.32406 -26.2655
ltibia 7.29992
lfoot -5.16325 -8.44225
ltoes 1.62841
480
root 3.33526 17.9487 16.5476 -154.679 -2.09029 176.238
lowerback -31.0895 -1.82108 -8.14255
upperback -1.72291 -0.234979 -0.94548
thorax 14.2783 -0.938578 3.18483
lowerneck -2.89472 -2.52302 -0.579332
upperneck 7.34325 -3.5378 0.827582
head 2.8633 -1.7988 0.243093
rclavicle -1.2424e-015 -3.26007e-014
rhumerus -35.2063 -18.5887 -79.6238
rradius 31.5305
rwrist -0.866493
rhand -4.73816 -53.037
rfingers 7.12502
rthumb 21.045 -81.915
lclavicle -1.2424e-015 -3.26007e-014
lhumerus -30.1501 2.38113 83.4735
lradius 19.7162
lwrist -7.20845
lhand -19.5149 -12.751
lfingers 7.12502
lthumb 6.80816 17.1195
rfemur -24.1701 9.25661 15.8298
rtibia 10.2024
rfoot -19.4183 -4.21197
rtoes -30.4844
lfemur -22.848 -5.29886 -26.4295
ltibia 7.26942
lfoot -5.14785 -8.08017
ltoes -0.194098
481
root 3.33603 17.9491 16.5428 -154.701 -2.20482 176.173
lowerback -31.049 -1.79028 -8.09531
upperback -1.78287 -0.214367 -1.07056
thorax 14.1869 -0.924226 3.03097
lowerneck -2.44286 -2.87804 -0.178938
upperneck 6.59498 -4.00349 0.776833
head 2.52105 -2.0177 0.157776
rclavicle 2.38542e-015 -2.0276e-014
rhumerus -35.3205 -18.734 -79.6436
rradius 31.4132
rwrist -0.830835
rhand -4.75571 -52.811
rfingers 7.12502
rthumb 21.0281 -81.691
lclavicle 2.38542e-015 -2.0276e-014
lhumerus -30.2005 2.12939 83.3851
lradius 19.8328
lwrist -7.03144
lhand -19.5088 -12.9039
lfingers 7.12502
lthumb 6.81399 16.9664
rfemur -24.0793 8.86729 15.8539
rtibia 10.1726
rfoot -19.3714 -3.82679
rtoes -29.5757
lfemur -22.8042 -5.3565 -26.5056
ltibia 7.25773
lfoot -5.1346 -7.97962
ltoes -1.66575
482
root 3.33787 17.9503 16.539 -154.763 -2.38309 176.181
lowerback -30.9328 -1.76103 -8.02927
upperback -1.83809 -0.209853 -1.14038
thorax 14.0712 -0.913572 2.92331
lowerneck -2.3206 -3.11617 0.144083
upperneck 6.54033 -4.32719 0.611424
head 2.47 -2.17693 0.0441756
rclavicle 3.57812e-015 3.57812e-015
rhumerus -35.5019 -18.95 -79.6002
rradius 31.4097
rwrist -0.717131
rhand -4.70529 -52.7398
rfingers 7.12502
rthumb 21.0766 -81.6144
lclavicle 3.57812e-015 3.57812e-015
lhumerus -30.2176 2.26664 83.1842
lradius 19.7733
lwrist -7.25478
lhand -20.1419 -13.5632
lfingers 7.12502
lthumb 6.20283 16.326
rfemur -23.9511 8.50466 15.9798
rtibia 10.1291
rfoot -19.3551 -3.5111
rtoes -28.3562
lfemur -22.7373 -5.46905 -26.4394
ltibia 7.2852
lfoot -5.1312 -8.20184
ltoes -0.227386
483
root 3.34221 17.9512 16.5334 -154.803 -2.50295 176.172
lowerback -30.9835 -1.95581 -8.52521
upperback -1.76009 -0.311488 -0.751092
thorax 14.1936 -0.994519 3.57323
lowerneck -2.41561 -3.03023 -0.225336
upperneck 6.3819 -4.15806 0.241907
head 2.43367 -2.10761 -0.00501189
rclavicle 1.73688e-014 -1.90833e-014
rhumerus -35.3054 -18.8906 -79.0539
rradius 31.2843
rwrist -0.573344
rhand -4.67947 -52.732
rfingers 7.12502
rthumb 21.1013 -81.6038
lclavicle 1.73688e-014 -1.90833e-014
lhumerus -30.0421 2.79364 83.5864
lradius 19.7735
lwrist -7.63776
lhand -20.4641 -13.7794
lfingers 7.12502
lthumb 5.89175 16.1187
rfemur -23.809 8.5338 16.0007
rtibia 10.0216
rfoot -19.4606 -3.69425
rtoes -28.2079
lfemur -22.6887 -5.51632 -26.4007
ltibia 7.31886
lfoot -5.07847 -8.58412
ltoes 2.17761
484
root 3.34539 17.9508 16.5277 -154.845 -2.57498 176.139
lowerback -30.9713 -1.84193 -8.16223
upperback -1.77251 -0.255263 -1.10134
thorax 14.1679 -0.942882 3.01845
lowerneck -2.6369 -2.90722 -0.0494109
upperneck 6.48627 -4.0125 0.409373
head 2.50863 -2.02508 0.0172231
rclavicle 6.26172e-015 -2.06736e-014
rhumerus -35.315 -19.4066 -79.3876
rradius 31.0259
rwrist -0.180865
rhand -4.73305 -52.6339
rfingers 7.12502
rthumb 21.0499 -81.5114
lclavicle 6.26172e-015 -2.06736e-014
lhumerus -30.094 2.15741 83.2257
lradius 20.0428
lwrist -7.17363
lhand -20.548 -13.6072
lfingers 7.12502
lthumb 5.81075 16.2931
rfemur -23.6619 8.74776 15.9453
rtibia 9.91044
rfoot -19.5584 -3.96194
rtoes -28.296
lfemur -22.6353 -5.56214 -26.4246
ltibia 7.35777
lfoot -5.12376 -8.73368
ltoes 2.6558
